<?xml version="1.0" encoding="UTF-8"?>
<svg version="1.1" viewBox="0 0 2048 823" width="788" height="317" xmlns="http://www.w3.org/2000/svg">
<path transform="translate(598,369)" d="m0 0h41l7 15 26 58 12 27 13 29 18 41 4 8v2h55l51-1v-178l1-1h82l20 2 16 5 12 7 10 9 6 7 6 12 4 17v12l-3 14-5 12-7 9-8 8-8 5-5 2 2 5 14 20 12 17 10 14v2l-39 1 6 20 15 46 14 41v5h-119l-9-25-20-59-5-15h-232l-1 5-18 55-12 36-13 40-12 36-14 44-2 5 136 1v16l-1 1h-255l-1-2v-15l100-1 3-10 20-62 53-159 2-3h95l-14-35-2-3h-83l-15 36-1 1h-42l1-5 10-21 16-36 18-40 16-36 15-34zm270 33-1 1v63h36l14-2 10-4 5-4 6-10 1-4v-16l-4-10-4-5-9-5-11-3-9-1zm-251 10-7 15-16 39-4 10v3h56l-3-9-10-25-13-32zm251 86-1 1v50h72l-2-6-16-23-10-15-6-7z" fill="#FEFEFE"/>
<path transform="translate(1701,369)" d="m0 0h150v26l-8 11-9 11-14 17-11 13-13 16-8 11-11 13-11 14-10 11-1 2 100 1v33l78 1 1 1v234h92v16l-1 1h-294l-1-1v-16l90-1 1-235h-122l-1-24 6-9 9-10 9-11 14-17 11-13 11-14 9-10 8-10 10-12 6-8 4-7-94-1z" fill="#FEFEFE"/>
<path transform="translate(1365,27)" d="m0 0h29l4 9 22 62 16 44 20 56 13 35 20 56 14 39 4 10v2h-119l-9-24-13-37-15-42-9-26-11-30-13-38-14-40-10-28-3-6v271h-17v-295h-92l-1-1v-16z" fill="#FEFEFE"/>
<path transform="translate(1958,27)" d="m0 0h65l3 1v16l-2 1-89 1-1 294-82 1h-30l-1-11v-261l1-4h-2l-1 5-13 36-12 35-9 30-11 31-9 25-19 55-16 46-5 12h-20l1-5 19-55 21-61 13-36 17-49 12-34 9-30 13-37 3-5z" fill="#FEFEFE"/>
<path transform="translate(280,27)" d="m0 0h46l1 1v16l-2 1-95 1-1 293-1 1-106 1-5-1-1-26 1-269h-100v-17h173z" fill="#FEFEFE"/>
<path transform="translate(764,16)" d="m0 0 4 1 14 41 16 48 14 43 62 186 1 5h-120l-6-15-22-65-14-43-2-2-14 41-16 50-12 34h-20l1-6 29-88 19-56 14-43 17-51 14-43 12-35 1-1z" fill="#FEFEFE"/>
<path transform="translate(1538,369)" d="m0 0h41l1 174 4 13 8 20 12 34 3 7 2-3 15-42 7-18 1-4 5-1h16l-3 10-19 54-10 28-18 52-15 43-18 52-5 12-2 2-13-1-4-8-14-40-18-52-17-48-13-37-7-19-12-34-4-12v-2h76v-178z" fill="#FEFEFE"/>
<path transform="translate(117,549)" d="m0 0h97l15 1v234h98v16l-1 1h-308l-1-1v-16l98-1 1-77z" fill="#FEFEFE"/>
<path transform="translate(245,369)" d="m0 0h39l1 1v70h81v-65l1-6h41v178l-1 1h-40l-1-73h-81v72l-1 1h-38l-1-1z" fill="#FEFEFE"/>
<path transform="translate(1095,369)" d="m0 0h150v27l-7 9-9 11-13 16-11 13-18 22-11 13-13 16-11 13-4 6h101v32l-1 1h-156l-1-24 7-10 13-15 14-17 11-13 11-14 8-9 9-11 11-13 9-11 6-9h-96v-31z" fill="#FEFEFE"/>
<path transform="translate(895,761)" d="m0 0h119l3 7 4 14 1 1h96l4 1v17h-338l-1-1v-16l75-1h43l-6-19z" fill="#FEFEFE"/>
<path transform="translate(1364,369)" d="m0 0h41v178l-2 1h-39l-1-24v-114z" fill="#FEFEFE"/>
<path transform="translate(1274,761)" d="m0 0h17v22l92 1v16l-1 1h-200l-1-4v-13l72-1h21z" fill="#FEFEFE"/>
<path transform="translate(1274,549)" d="m0 0h17v112h-17z" fill="#FEFEFE"/>
<path transform="translate(1041,688)" d="m0 0 13 1v18l-1 6 5-3 9-9 5-6 8-6 3-1h10l-2 4-15 15-4 6 1 4 12 14 8 11v2h-13l-5-5-12-13-5-2-2 5-2 7-1 8h-12l-1-55z" fill="#FEFEFE"/>
<path transform="translate(867,688)" d="m0 0h8l5 6 16 36 5 12v2h-13l-5-10-27-1-3 10-1 1h-13l2-6 20-45zm2 16-4 8-3 8v3h16l-1-6-6-12z" fill="#FEFEFE"/>
<path transform="translate(1257,688)" d="m0 0h8l4 5 8 17 8 21 4 9v4h-11l-2-2-2-7-1-1h-27l-4 10h-12l1-6 13-30 8-16zm1 16-6 16v3h16l-1-6-6-12z" fill="#FEFEFE"/>
<path transform="translate(1157,731)" d="m0 0h9l3 2v8l-3 3-4 1-6-2-2-2v-7z" fill="#FEFEFE"/>
<path transform="translate(964,731)" d="m0 0h9l2 2v8l-2 3h-10l-2-3v-7z" fill="#FEFEFE"/>
</svg>
